<?xml version="1.0" encoding="UTF-8"?><svg id="Layer_1" xmlns="http://www.w3.org/2000/svg" viewBox="0 0 2798.78 2444.7"><defs><style>.cls-1,.cls-2{fill:#fff;}.cls-3{fill:#fb923c;}.cls-3,.cls-2{fill-rule:evenodd;}</style></defs><path class="cls-2" d="m1344.75,1687.7s14.68,111.07,14.68,138.18,36.2,33.67,38.55,1.58c2.35-32.08,17.37-138.17,17.37-138.17l573.62-906.41-608.38,831.94L510.84,380.67s335.25,590.68,833.91,1307.03"/><path class="cls-1" d="m1368.68,250.62c-320.75-15.85-885.37,9.31-885.37,90.03,0,14.64,30.16,30.81,84.22,44.5,326.87,82.7,1312.11,83.06,1615.89,2.51,84.78-22.48,113.32-51.52-1.81-85.23-30.07-8.81-72.86-11.1-123.88-15.88,108.42,23.2,174.59,41.29,162.58,54.1,0,7.73-91.22,29.52-238.76,40.22-391.77,28.44-833.97,28.44-1225.74,0-3.84-.28-287.57-21.37-217.01-54.29,95.65-44.63,557.96-70.73,829.88-75.97"/><path class="cls-3" d="m1130.67,537.09c-280.07-106.22-429.61-24.65-455.12-8.46l311.06,438.41,395.04,556.77,395.04-556.77,346.54-488.4c-102.98,145.15-283.32,186.9-476.11,177.12l-92.59,150.64c17.18,11.3,32.64,25.85,45.4,43.52,56.49,78.06,38.99,187.12-39.05,243.59-78.11,56.48-187.15,38.98-243.62-39.08-56.47-78.06-38.96-187.13,39.08-243.6,51.45-37.22,116.36-42.3,170.82-19.1l78.66-138.82c-166.1-14.4-337.99-63.79-475.14-115.8"/><path class="cls-1" d="m1373.79,1108.19l-4.8,9c-4.29,4.89-36.75,67.56-44.75,62.98-7.32-4.17,24.71-74.15,27.06-79.19l2.38-4.58c6.45,4.41,13.17,8.33,20.1,11.78M1953.5,21.83l-434.72,814.85c-4.63,7.49-28.45-1.38-24.65-11.52L1920.6,4.58c9.81-13.23,37.91,5.24,32.91,17.26Z"/><path class="cls-2" d="m1473.76,1097.39c-53.54,9.12-110.1-11.84-144.09-58.83-47.64-65.85-32.88-157.84,32.98-205.49,13.46-9.75,28.03-16.86,43.07-21.5-8.18,3.9-16.15,8.58-23.76,14.08-67.17,48.61-82.23,142.46-33.63,209.64,30.14,41.63,77.65,63.25,125.42,62.09"/><path class="cls-1" d="m215.33,2443.59c-30.34,0-58.55-5.09-84.64-15.26-26.08-10.17-48.93-24.51-68.54-43.01-19.62-18.5-34.88-40.24-45.79-65.21-10.92-24.97-16.37-52.07-16.37-81.31s5.46-56.79,16.37-81.58c10.91-24.78,26.08-46.25,45.51-64.38,19.42-18.12,42.08-32.28,67.99-42.46,25.89-10.17,54.02-15.26,84.36-15.26s58.83,4.81,84.36,14.43c25.53,9.63,47.73,22.95,66.6,39.96l-73.81,74.37c-8.88-9.62-19.7-17.2-32.47-22.75-12.77-5.55-27.66-8.33-44.68-8.33-14.8,0-28.4,2.41-40.79,7.22-12.4,4.81-23.03,11.84-31.91,21.09-8.88,9.25-15.82,20.45-20.81,33.58-4.99,13.14-7.49,27.84-7.49,44.12s2.5,31.55,7.49,44.68c4.99,13.14,11.93,24.33,20.81,33.58,8.88,9.25,19.51,16.37,31.91,21.37,12.39,4.99,25.99,7.49,40.79,7.49,16.65,0,31.54-2.58,44.68-7.77,13.13-5.18,24.51-12.76,34.13-22.75l74.37,74.37c-19.62,17.02-41.62,30.25-66.04,39.68-24.42,9.44-53.1,14.15-86.02,14.15Z"/><path class="cls-1" d="m585.51,2444.7c-31.08,0-59.66-5.19-85.75-15.54-26.08-10.35-48.84-24.78-68.26-43.29-19.43-18.5-34.5-40.32-45.23-65.49-10.74-25.16-16.1-52.35-16.1-81.58s5.27-56.79,15.82-81.58c10.54-24.78,25.43-46.43,44.68-64.93,19.23-18.5,41.9-32.83,67.99-43.01,26.08-10.17,54.67-15.26,85.75-15.26s59.66,5.09,85.75,15.26c26.08,10.18,48.74,24.51,67.99,43.01,19.23,18.51,34.13,40.24,44.68,65.21s15.82,52.26,15.82,81.86-5.27,56.33-15.82,81.31c-10.54,24.97-25.44,46.81-44.68,65.49-19.24,18.69-41.81,33.12-67.71,43.29-25.9,10.17-54.21,15.26-84.91,15.26Zm-1.11-97.68c20.72,0,38.66-4.44,53.83-13.32,15.17-8.88,26.82-21.45,34.96-37.74,8.13-16.28,12.21-35.33,12.21-57.16,0-16.28-2.32-30.98-6.94-44.12-4.63-13.13-11.38-24.42-20.26-33.86-8.88-9.43-19.52-16.65-31.91-21.64-12.4-4.99-26.36-7.49-41.9-7.49-20.72,0-38.67,4.35-53.83,13.04-15.18,8.7-26.83,21.09-34.96,37.18-8.14,16.1-12.21,35.06-12.21,56.89,0,16.65,2.31,31.63,6.94,44.95,4.62,13.32,11.38,24.7,20.26,34.13,8.88,9.44,19.51,16.65,31.91,21.65,12.39,4.99,26.36,7.49,41.9,7.49Z"/><path class="cls-1" d="m1046.14,2443.59c-30.34,0-58.55-5.09-84.64-15.26-26.08-10.17-48.93-24.51-68.54-43.01-19.62-18.5-34.88-40.24-45.79-65.21-10.92-24.97-16.37-52.07-16.37-81.31s5.46-56.79,16.37-81.58c10.91-24.78,26.08-46.25,45.51-64.38,19.42-18.12,42.08-32.28,67.99-42.46,25.89-10.17,54.02-15.26,84.36-15.26s58.83,4.81,84.36,14.43c25.53,9.63,47.73,22.95,66.6,39.96l-73.81,74.37c-8.88-9.62-19.7-17.2-32.47-22.75-12.77-5.55-27.66-8.33-44.68-8.33-14.8,0-28.4,2.41-40.79,7.22-12.4,4.81-23.03,11.84-31.91,21.09-8.88,9.25-15.82,20.45-20.81,33.58-4.99,13.14-7.49,27.84-7.49,44.12s2.5,31.55,7.49,44.68c4.99,13.14,11.93,24.33,20.81,33.58,8.88,9.25,19.51,16.37,31.91,21.37,12.39,4.99,25.99,7.49,40.79,7.49,16.65,0,31.54-2.58,44.68-7.77,13.13-5.18,24.51-12.76,34.13-22.75l74.37,74.37c-19.62,17.02-41.62,30.25-66.04,39.68-24.42,9.44-53.1,14.15-86.02,14.15Z"/><path class="cls-1" d="m1236.49,2436.93v-395.15h111v395.15h-111Zm239.75,0l-138.19-205.9,131.53-189.25h133.75l-152.07,205.34-.55-35.52,158.73,225.32h-133.2Z"/><path class="cls-1" d="m1586.14,2136.13v-94.35h347.98v94.35h-347.98Zm118.21,300.8v-395.15h111v395.15h-111Z"/><path class="cls-1" d="m1903.04,2436.93l150.4-395.15h113.22l148.74,395.15h-115.44l-110.44-335.77h39.96l-113.22,335.77h-113.22Zm97.68-66.6v-86.58h220.88v86.58h-220.88Z"/><path class="cls-1" d="m2347.03,2436.93v-395.15h111v395.15h-111Z"/><path class="cls-1" d="m2523.51,2436.93v-395.15h111v395.15h-111Zm90.46,0v-94.35h184.81v94.35h-184.81Z"/></svg>